<?xml version="1.0" encoding="UTF-8"?>
<svg width="140px" height="107px" viewBox="0 0 140 107" version="1.1" xmlns="http://www.w3.org/2000/svg" xmlns:xlink="http://www.w3.org/1999/xlink">
    <!-- Generator: Sketch 40.3 (33839) - http://www.bohemiancoding.com/sketch -->
    <title>BizRightLogo</title>
    <desc>Created with Sketch.</desc>
    <defs>
        <polygon id="path-1" points="20.4987911 0.077557047 0.104544513 0.077557047 0.104544513 49.234675 20.4987911 49.234675 20.4987911 0.077557047"></polygon>
    </defs>
    <g id="Page-1" stroke="none" stroke-width="1" fill="none" fill-rule="evenodd">
        <g id="BR-Landing-State2" transform="translate(-80.000000, -38.000000)">
            <g id="BizRightLogo" transform="translate(80.000000, 38.000000)">
                <path d="M19.6287857,72.3184275 C22.7952143,71.8746289 24.0866429,69.8093134 24.0845,67.4201255 C24.0823571,65.4890987 23.0552143,64.3458503 20.6466429,64.6833671 L17.0780714,65.1831792 L16.0595,72.8182396 L19.6287857,72.3184275 Z M4.57235714,92.9047966 L8.90807143,60.3064208 C9.04164286,59.5064342 9.48735714,59.0303201 10.2452143,58.9247564 L21.8430714,57.299649 C28.9345,56.3064879 33.0423571,59.5459309 33.0487857,65.2908973 C33.0545,70.4836289 30.3366429,74.3104946 26.4587857,76.4174611 L30.8445,89.4082664 C31.1123571,90.1522396 30.4887857,90.6534879 29.9530714,90.7288906 L22.4602143,91.7780651 C21.8802143,91.8592128 21.3887857,91.6516758 21.2095,91.0793336 L17.4952143,79.4199242 L15.1309286,79.751696 L13.5380714,91.6488034 C13.4495,92.4882866 13.0037857,92.9644007 12.2009286,93.0771456 L5.59878571,94.0013671 C4.84092857,94.1083671 4.48378571,93.7442799 4.57235714,92.9047966 L4.57235714,92.9047966 Z" id="Fill-1" fill="#000000"></path>
                <path d="M34.1000714,88.7685644 L38.4357857,56.1701886 C38.5693571,55.3242423 39.0150714,54.8488463 39.7729286,54.7425644 L46.3300714,53.8240879 C47.1329286,53.711343 47.4907857,54.073994 47.4022143,54.9141953 L43.0657857,87.5125711 C42.9322143,88.3585174 42.4865,88.8346315 41.6836429,88.9466584 L35.1265,89.8651349 C34.3686429,89.9721349 34.0115,89.6080477 34.1000714,88.7685644" id="Fill-3" fill="#000000"></path>
                <path d="M66.178,50.3540564 C71.7087143,49.579204 75.2358571,51.6581638 76.5765714,52.9421638 C76.933,53.2602913 76.9337143,53.6732107 76.5322857,54.1428617 L73.013,58.6813852 C72.6122857,59.1962779 72.1658571,59.2135128 71.7194286,58.8623517 C70.1572857,57.7478282 68.283,57.3672242 66.4094286,57.6300564 C60.9237143,58.3977275 57.8958571,64.2461034 57.9037143,71.3231839 C57.9094286,76.929553 59.8301429,79.7402779 63.8001429,79.1837342 C66.0751429,78.8656067 68.1258571,77.4293651 69.0165714,75.8796604 L69.4144286,72.7903047 L64.9101429,73.4215329 C64.1072857,73.5335597 63.7937143,73.1637275 63.8822857,72.3242443 L64.5015714,67.5954188 C64.6344286,66.7954322 65.0801429,66.3186 65.8837143,66.205855 L76.053,64.7818215 C76.8558571,64.6697946 77.2122857,65.0324456 77.0808571,65.8331503 L75.753,76.1769624 C75.1787143,80.6702443 69.2937143,85.6769826 61.9344286,86.708204 C53.4601429,87.8945396 48.5915714,82.7391503 48.5815714,73.5938819 C48.5694286,61.4152711 56.1865714,51.7536738 66.178,50.3540564" id="Fill-5" fill="#000000"></path>
                <path d="M78.7485,82.5145221 L83.0856429,49.9154282 C83.2185,49.0702 83.6642143,48.594804 84.4213571,48.487804 L90.9785,47.5693275 C91.7813571,47.4573007 92.1392143,47.8199517 92.0513571,48.660153 L90.4135,60.8394819 L101.162786,59.3343007 L102.800643,47.1542537 C102.9335,46.3083074 103.3785,45.8329114 104.137071,45.7259114 L110.694214,44.8074349 C111.497071,44.6954081 111.854214,45.0587772 111.765643,45.8989785 L107.429214,78.4966362 C107.296357,79.3418644 106.850643,79.8179785 106.047786,79.9307235 L99.4906429,80.8499181 C98.7320714,80.9554819 98.3756429,80.5913946 98.4642143,79.7526295 L100.234214,66.7266362 L89.4399286,68.2382805 L87.7142143,81.2585289 C87.5813571,82.103757 87.1349286,82.5805893 86.3320714,82.6926161 L79.7749286,83.6110926 C79.0177857,83.7173745 78.6599286,83.3532872 78.7485,82.5145221" id="Fill-7" fill="#000000"></path>
                <path d="M117.822857,77.0402154 L121.362857,50.4833899 L114.225714,51.482296 C113.467143,51.589296 113.065714,51.2323899 113.199286,50.4316852 L113.862143,45.6051953 C113.996429,44.7585309 114.396429,44.289598 115.199286,44.1761349 L138.437857,40.9208933 C139.240714,40.8088664 139.598571,41.1722356 139.465714,42.0174638 L138.846429,46.8389268 C138.712857,47.6396315 138.267143,48.1150275 137.509286,48.2213094 L130.282857,49.2331416 L126.742857,75.7914034 C126.655,76.6308866 126.208571,77.1070007 125.405714,77.2190275 L118.849286,78.137504 C118.045714,78.250249 117.689286,77.8861617 117.822857,77.0402154" id="Fill-9" fill="#000000"></path>
                <path d="M14.351,106.749735 C52.1345714,96.9021443 90.716,90.510151 129.641,87.608943 C132.848143,87.3698087 134.676,83.4639497 130.391,83.7835134 C90.9081429,86.7256544 51.7402857,93.2555268 13.4167143,103.243869 C9.65028571,104.224822 10.5695714,107.734997 14.351,106.749735" id="Fill-11" fill="#FF5A58"></path>
                <path d="M18.9654286,31.6330779 C19.0032857,31.6302054 19.0454286,31.6208698 19.0925714,31.6065074 C30.5432857,27.984306 37.0682857,18.9891248 36.4018571,13.0107691 C35.9447143,8.90024564 32.1504286,6.93115839 27.999,7.39793691 C27.814,7.41876242 27.7004286,7.45538658 27.5868571,7.63348054 C25.3054286,13.0617557 20.409,26.539447 18.7332857,31.2050779 C18.7125714,31.2855074 18.7047143,31.3551651 18.7097143,31.4154872 C18.7218571,31.5612658 18.8132857,31.6424134 18.9654286,31.6323597 L18.9654286,31.6330779 Z M30.5097143,37.8254336 C30.1982857,35.0233262 28.304,34.3526013 25.2068571,34.7008899 C23.2861429,34.9170443 20.4861429,35.6753799 17.7682857,37.1791248 C17.569,37.3083866 17.3618571,37.3751718 17.1618571,37.3974336 C16.929,37.4232859 16.7747143,37.3306483 16.5875714,37.3514738 C16.4497143,37.3665544 16.3261429,37.4491383 16.2475714,37.602098 C15.4982857,39.3255879 14.0425714,44.2820577 13.4597143,46.3660443 C13.4454286,46.4306752 13.4382857,46.4945879 13.4425714,46.5520376 C13.4511429,46.6626282 13.5032857,46.7495208 13.6318571,46.7882993 C14.8647143,47.1531047 15.6361429,47.3197087 17.494,47.1100174 C25.609,46.1965678 31.0025714,42.2469034 30.5097143,37.8254336 L30.5097143,37.8254336 Z M22.2832857,52.939004 C18.1947143,53.3993195 14.8275714,52.4535544 12.9804286,49.3828698 C12.9175714,49.270843 12.824,49.2184201 12.7347143,49.2284738 C12.6361429,49.2399638 12.5382857,49.3297289 12.4918571,49.5006416 C11.949,51.3907356 11.7782857,52.1031114 11.6132857,52.8786819 C11.4897143,53.4826215 10.974,53.7993128 10.2818571,53.8775879 C8.42971429,54.085843 5.31757143,52.5892792 5.06328571,50.3099638 C5.00614286,49.7972255 5.094,49.2428362 5.374,48.6625946 C7.10542857,45.0619369 14.2118571,23.2633799 19.0118571,10.0485208 C19.0532857,9.94080268 19.069,9.87760805 19.0618571,9.81441342 C19.049,9.70095034 18.9661429,9.63991007 18.8461429,9.64996376 C18.7911429,9.65427248 18.7275714,9.67366174 18.6611429,9.70956779 C10.5075714,13.6542054 5.06257143,21.6447356 5.43042857,24.9452188 C5.64614286,26.8769638 7.70328571,26.7706819 7.80828571,27.704957 C7.849,28.079098 7.85614286,28.7088899 6.68042857,28.8410242 C3.21042857,29.2316819 0.411142857,24.375749 0.044,21.0752658 C-0.808857143,13.414353 10.9347143,5.66008456 21.2718571,3.29890336 C21.5054286,3.24001745 21.6025714,3.12511812 21.6711429,2.93912483 L22.0082857,2.01849396 C22.2411429,1.37864832 22.8332857,1.05190336 23.5718571,0.968601342 C24.8082857,0.829285906 26.4504286,1.3743396 27.4932857,2.28348054 C27.6318571,2.39407114 27.8861429,2.42782282 28.2654286,2.44864832 C37.5447143,2.98149396 42.0997143,9.53147383 42.654,14.5123597 C43.3061429,20.3671987 38.8247143,27.4291987 30.389,31.6589302 C30.2482857,31.7343329 30.1647143,31.8154805 30.1732857,31.8973463 C30.184,31.9871114 30.2404286,32.079749 30.3818571,32.1637691 C33.3082857,33.6632054 35.5832857,36.6232993 35.9711429,40.1112121 C36.7411429,47.0245611 29.6547143,52.1088564 22.284,52.9382859 L22.2832857,52.939004 Z" id="Fill-13" fill="#000000"></path>
                <g id="Group-17" transform="translate(38.571429, 0.640564)">
                    <mask id="mask-2" fill="white">
                        <use xlink:href="#path-1"></use>
                    </mask>
                    <g id="Clip-16"></g>
                    <path d="M10.9729286,7.23212282 C10.6329286,4.18082752 12.6665,0.483941611 15.9500714,0.114109396 C18.3665,-0.158058389 19.3850714,1.11373356 19.5872143,2.9205255 C19.9265,5.97253893 17.5707857,10.7157268 14.8450714,11.0216463 C13.0479286,11.2248745 11.2136429,9.38792148 10.9729286,7.23212282 M0.175071429,43.7607738 C-0.0820714286,41.4563242 0.363642857,38.6944315 1.51721429,34.970257 C3.86578571,27.3287336 7.55292857,17.6434383 8.03364286,16.3285591 C8.2265,15.8028946 8.69435714,15.4976933 9.2515,15.4344987 C11.1722143,15.2183443 14.6022143,17.2922772 14.7822143,18.9109215 C14.8307857,19.3468208 14.7486429,19.734606 14.4807857,20.1432168 C13.0236429,22.2623913 6.4615,38.2614047 6.90578571,42.2469752 C6.96792857,42.8071094 7.1965,43.1597067 7.62935714,43.1115926 C9.98364286,42.846606 17.2115,26.0784852 18.1729286,24.0160423 C18.2772143,23.8149685 18.4007857,23.8013242 18.4615,23.794143 C19.2050714,23.7101228 20.4243571,24.5180087 20.4936429,25.1413376 C20.5007857,25.203096 20.5079286,25.2655725 20.4600714,25.3977067 C18.8865,29.2956664 11.6186429,48.5262235 5.54792857,49.2098745 C2.88507143,49.5093309 0.542214286,47.0619752 0.175071429,43.7607738" id="Fill-15" fill="#000000" mask="url(#mask-2)"></path>
                </g>
                <path d="M59.3295714,48.1393718 C57.3481429,48.3627074 55.1495714,46.0877007 54.8652857,43.5340631 C54.761,42.5997879 54.9052857,41.637506 55.4345714,40.7592443 C56.9124286,38.2587477 64.5988571,27.3038148 71.6895714,19.4439826 C71.7988571,19.3333919 71.8402857,19.2012577 71.8281429,19.0921034 C71.8131429,18.9542242 71.7145714,18.852251 71.5645714,18.8673315 C71.526,18.8716403 71.4852857,18.8838483 71.4402857,18.9039557 C68.4402857,20.124043 63.7402857,21.8511235 61.091,22.2755329 C60.8424286,22.3035396 60.7388571,22.4198752 60.6838571,22.573553 C58.6517143,27.4057879 57.6067143,29.8567342 57.0017143,31.1859758 C56.9052857,31.4495262 56.3002857,31.6441369 55.681,31.7137946 C54.751,31.8179221 53.7324286,31.680043 53.9324286,31.216855 C55.0531429,28.8836805 56.2545714,26.1620027 58.1781429,20.9010497 C58.2145714,20.7904591 58.2488571,20.6676604 58.2174286,20.4708953 C58.2088571,20.4120094 58.1931429,20.3459423 58.1702857,20.2712577 C57.9767143,19.6630094 57.8038571,19.2407544 57.7352857,18.6181436 C57.5481429,16.9370228 57.946,15.4411772 59.3088571,15.2882174 C60.3002857,15.1761906 60.136,17.0863919 63.791,16.6756268 C68.3517143,16.1621705 74.1952857,13.0440899 75.2902857,12.9212913 C77.7067143,12.6491235 79.966,15.4849826 80.2295714,17.8519087 C80.3402857,18.8479423 80.0667143,19.7621101 79.3717143,20.2813114 C75.0874286,25.1774591 67.1995714,34.3270362 62.421,40.9804255 C62.3674286,41.0630094 62.3181429,41.1822174 62.3317143,41.3064523 C62.3467143,41.4393047 62.4524286,41.530506 62.6652857,41.5089624 C62.7488571,41.4996268 62.8517143,41.4723383 62.9717143,41.4220698 C64.8774286,40.5143651 66.8045714,39.7933718 68.4145714,39.6124054 C73.061,39.0888953 74.7852857,42.7419758 75.021,44.858996 C75.1038571,45.6065597 74.8567143,46.2026 74.1752857,46.2787208 C73.7417143,46.3282711 73.2252857,46.196855 72.4881429,45.7753181 C71.421,45.2015396 70.3402857,45.0708416 68.4817143,45.2798148 C65.446,45.6216403 61.3374286,47.0298752 60.4717143,47.694855 C60.1202857,47.9232174 59.7617143,48.0898215 59.3281429,48.1386537 L59.3295714,48.1393718 Z" id="Fill-18" fill="#000000"></path>
            </g>
        </g>
    </g>
</svg>